<?xml version="1.0" encoding="utf-8"?>
<!-- Generator: Adobe Illustrator 25.2.0, SVG Export Plug-In . SVG Version: 6.00 Build 0)  -->
<svg version="1.1" id="Layer_1" xmlns="http://www.w3.org/2000/svg" xmlns:xlink="http://www.w3.org/1999/xlink" x="0px" y="0px"
	 viewBox="0 0 108 32" style="enable-background:new 0 0 108 32;" xml:space="preserve">
<style type="text/css">
	.st0{fill:url(#SVGID_1_);}
	.st1{fill:url(#SVGID_2_);}
	.st2{fill:url(#SVGID_3_);}
	.st3{fill:url(#SVGID_4_);}
	.st4{fill:url(#SVGID_5_);}
	.st5{fill:url(#SVGID_6_);}
	.st6{fill:url(#SVGID_7_);}
	.st7{fill:url(#SVGID_8_);}
	.st8{fill:url(#SVGID_9_);}
	.st9{fill:url(#SVGID_10_);}
	.st10{fill:url(#SVGID_11_);}
	.st11{fill:url(#SVGID_12_);}
	.st12{fill:url(#SVGID_13_);}
	.st13{fill:url(#SVGID_14_);}
	.st14{fill:url(#SVGID_15_);}
	.st15{fill:url(#SVGID_16_);}
	.st16{fill:url(#SVGID_17_);}
	.st17{fill:url(#SVGID_18_);}
	.st18{fill:url(#SVGID_19_);}
	.st19{fill:url(#SVGID_20_);}
	.st20{fill:url(#SVGID_21_);}
	.st21{fill:url(#SVGID_22_);}
</style>
<g>
	<g>
		
			<linearGradient id="SVGID_1_" gradientUnits="userSpaceOnUse" x1="30.15" y1="75.2524" x2="30.15" y2="59.1843" gradientTransform="matrix(1 0 0 -1 0 34)">
			<stop  offset="0" style="stop-color:#009900"/>
			<stop  offset="1" style="stop-color:#00BB00"/>
		</linearGradient>
		<path class="st0" d="M28.9-19.8l1.8,0.8c0.3-0.7,0.5-1.3,0.7-2l-1.9-0.5C29.3-21,29.1-20.4,28.9-19.8z"/>
		
			<linearGradient id="SVGID_2_" gradientUnits="userSpaceOnUse" x1="14.8369" y1="75.2524" x2="14.8369" y2="59.1843" gradientTransform="matrix(1 0 0 -1 0 34)">
			<stop  offset="0" style="stop-color:#009900"/>
			<stop  offset="1" style="stop-color:#00BB00"/>
		</linearGradient>
		<path class="st1" d="M16-11.3c-7.7,0-14-6.3-14-14c0-7.3,5.7-13.4,13-14v3c-6.1,0.6-10.5,6-10,12s5.9,10.5,12,10
			c5.7-0.5,10-5.3,10-11h-2c0,5-4,9-9,9s-9-4-9-9c0-4.6,3.4-8.4,8-8.9v5.9h2v-13h-2v0.1C6.2-40.7-0.5-33.1,0-24.3s8.2,15.5,17,15
			c5.3-0.3,10.1-3.3,12.7-7.8l-1.7-1C25.5-13.9,20.9-11.3,16-11.3z"/>
		
			<linearGradient id="SVGID_3_" gradientUnits="userSpaceOnUse" x1="30.95" y1="75.2524" x2="30.95" y2="59.1843" gradientTransform="matrix(1 0 0 -1 0 34)">
			<stop  offset="0" style="stop-color:#009900"/>
			<stop  offset="1" style="stop-color:#00BB00"/>
		</linearGradient>
		<path class="st2" d="M30-25.3c0,0.6,0,1.2-0.1,1.9l2,0.3c0.1-0.7,0.1-1.4,0.1-2.1L30-25.3z"/>
		
			<linearGradient id="SVGID_4_" gradientUnits="userSpaceOnUse" x1="16" y1="75.2524" x2="16" y2="59.1843" gradientTransform="matrix(1 0 0 -1 0 34)">
			<stop  offset="0" style="stop-color:#009900"/>
			<stop  offset="1" style="stop-color:#00BB00"/>
		</linearGradient>
		<rect x="15" y="-26.3" class="st3" width="2" height="2"/>
	</g>
</g>
<g>
	<g>
		
			<linearGradient id="SVGID_5_" gradientUnits="userSpaceOnUse" x1="30.15" y1="33.8137" x2="30.15" y2="17.7457" gradientTransform="matrix(1 0 0 -1 0 34)">
			<stop  offset="0" style="stop-color:#009900"/>
			<stop  offset="1" style="stop-color:#00BB00"/>
		</linearGradient>
		<path class="st4" d="M28.9,21.6l1.8,0.8c0.3-0.7,0.5-1.3,0.7-2l-1.9-0.5C29.3,20.4,29.1,21,28.9,21.6z"/>
		
			<linearGradient id="SVGID_6_" gradientUnits="userSpaceOnUse" x1="14.8369" y1="33.8137" x2="14.8369" y2="17.7457" gradientTransform="matrix(1 0 0 -1 0 34)">
			<stop  offset="0" style="stop-color:#009900"/>
			<stop  offset="1" style="stop-color:#00BB00"/>
		</linearGradient>
		<path class="st5" d="M16,30.1c-7.7,0-14-6.3-14-14c0-7.3,5.7-13.4,13-14v3C9,5.7,4.5,11,5,17.1c0.6,6,5.9,10.5,12,10
			c5.7-0.5,10-5.3,10-11h-2c0,5-4,9-9,9s-9-4-9-9c0-4.6,3.4-8.4,8-8.9v5.9h2v-13h-2v0.1C6.2,0.7-0.5,8.3,0,17.1s8.2,15.5,17,15
			c5.3-0.3,10.1-3.3,12.7-7.8l-1.7-1C25.5,27.5,20.9,30.1,16,30.1z"/>
		
			<linearGradient id="SVGID_7_" gradientUnits="userSpaceOnUse" x1="30.95" y1="33.8137" x2="30.95" y2="17.7457" gradientTransform="matrix(1 0 0 -1 0 34)">
			<stop  offset="0" style="stop-color:#009900"/>
			<stop  offset="1" style="stop-color:#00BB00"/>
		</linearGradient>
		<path class="st6" d="M30,16.1c0,0.6,0,1.2-0.1,1.9l2,0.3c0.1-0.7,0.1-1.4,0.1-2.1L30,16.1z"/>
		
			<linearGradient id="SVGID_8_" gradientUnits="userSpaceOnUse" x1="16" y1="33.8137" x2="16" y2="17.7457" gradientTransform="matrix(1 0 0 -1 0 34)">
			<stop  offset="0" style="stop-color:#009900"/>
			<stop  offset="1" style="stop-color:#00BB00"/>
		</linearGradient>
		<rect x="15" y="15.1" class="st7" width="2" height="2"/>
	</g>
</g>
<g>
	
		<linearGradient id="SVGID_9_" gradientUnits="userSpaceOnUse" x1="26" y1="33.8137" x2="26" y2="17.7457" gradientTransform="matrix(1 0 0 -1 0 34)">
		<stop  offset="0" style="stop-color:#009900"/>
		<stop  offset="1" style="stop-color:#00BB00"/>
	</linearGradient>
	<path class="st8" d="M23.6,10.9c-0.9-0.5-1.6-1.2-2.2-2.1c-0.5-0.9-0.8-1.9-0.8-3s0.3-2.1,0.8-3s1.3-1.6,2.2-2.1
		c0.9-0.5,2-0.7,3.1-0.7c1,0,1.8,0.2,2.6,0.5c0.8,0.3,1.4,0.8,2,1.5l-1.6,1.6c-0.8-0.9-1.7-1.3-2.8-1.3c-0.7,0-1.3,0.2-1.9,0.5
		c-0.5,0.3-1,0.7-1.3,1.3c-0.3,0.5-0.5,1.2-0.5,1.9s0.2,1.3,0.5,1.9c0.3,0.5,0.7,1,1.3,1.3c0.5,0.3,1.2,0.5,1.9,0.5
		c1.1,0,2.1-0.4,2.8-1.3l1.7,1.5c-0.5,0.6-1.2,1.1-2,1.5c-0.8,0.3-1.7,0.5-2.6,0.5C25.6,11.7,24.6,11.4,23.6,10.9z"/>
	
		<linearGradient id="SVGID_10_" gradientUnits="userSpaceOnUse" x1="38.2" y1="33.8137" x2="38.2" y2="17.7457" gradientTransform="matrix(1 0 0 -1 0 34)">
		<stop  offset="0" style="stop-color:#009900"/>
		<stop  offset="1" style="stop-color:#00BB00"/>
	</linearGradient>
	<path class="st9" d="M35.1,10.9c-0.9-0.5-1.7-1.2-2.2-2.1c-0.5-0.9-0.8-1.9-0.8-3s0.3-2.1,0.8-3s1.3-1.6,2.2-2.1s2-0.8,3.1-0.8
		c1.2,0,2.2,0.3,3.1,0.8c0.9,0.5,1.7,1.2,2.2,2.1c0.5,0.9,0.8,1.9,0.8,3s-0.3,2.1-0.8,3s-1.3,1.6-2.2,2.1s-2,0.8-3.1,0.8
		S36,11.4,35.1,10.9z M40,9c0.5-0.3,1-0.7,1.3-1.3c0.3-0.5,0.5-1.2,0.5-1.9s-0.2-1.3-0.5-1.9c-0.3-0.5-0.7-1-1.3-1.3
		c-0.5-0.3-1.1-0.5-1.8-0.5s-1.3,0.2-1.8,0.5s-1,0.7-1.3,1.3c-0.3,0.5-0.5,1.2-0.5,1.9s0.2,1.3,0.5,1.9c0.3,0.5,0.7,1,1.3,1.3
		c0.5,0.3,1.1,0.5,1.8,0.5S39.5,9.3,40,9z"/>
	
		<linearGradient id="SVGID_11_" gradientUnits="userSpaceOnUse" x1="52.55" y1="33.8137" x2="52.55" y2="17.7457" gradientTransform="matrix(1 0 0 -1 0 34)">
		<stop  offset="0" style="stop-color:#009900"/>
		<stop  offset="1" style="stop-color:#00BB00"/>
	</linearGradient>
	<path class="st10" d="M56.5,11.5V4.8l-3.3,5.5H52l-3.3-5.4v6.6h-2.4V0.3h2.1l4.2,6.9l4.1-6.9h2.1v11.2H56.5z"/>
	
		<linearGradient id="SVGID_12_" gradientUnits="userSpaceOnUse" x1="66.4" y1="33.8137" x2="66.4" y2="17.7457" gradientTransform="matrix(1 0 0 -1 0 34)">
		<stop  offset="0" style="stop-color:#009900"/>
		<stop  offset="1" style="stop-color:#00BB00"/>
	</linearGradient>
	<path class="st11" d="M69,0.8c0.7,0.3,1.3,0.8,1.7,1.4c0.4,0.6,0.6,1.3,0.6,2.2c0,0.8-0.2,1.5-0.6,2.1s-1,1.1-1.7,1.4
		c-0.7,0.3-1.6,0.5-2.6,0.5h-2.3v3.1h-2.6V0.3h4.8C67.4,0.3,68.3,0.5,69,0.8z M68,5.8c0.4-0.3,0.6-0.8,0.6-1.4
		c0-0.6-0.2-1.1-0.6-1.4c-0.4-0.3-1-0.5-1.8-0.5h-2.1v3.9h2.1C67.1,6.3,67.6,6.1,68,5.8z"/>
	
		<linearGradient id="SVGID_13_" gradientUnits="userSpaceOnUse" x1="77.3" y1="33.8137" x2="77.3" y2="17.7457" gradientTransform="matrix(1 0 0 -1 0 34)">
		<stop  offset="0" style="stop-color:#009900"/>
		<stop  offset="1" style="stop-color:#00BB00"/>
	</linearGradient>
	<path class="st12" d="M79.9,9.1h-5.2l-1,2.4H71l5-11.2h2.6l5,11.2h-2.7L79.9,9.1z M79.1,7.1l-1.8-4.3l-1.8,4.3H79.1z"/>
	
		<linearGradient id="SVGID_14_" gradientUnits="userSpaceOnUse" x1="89.85" y1="33.8137" x2="89.85" y2="17.7457" gradientTransform="matrix(1 0 0 -1 0 34)">
		<stop  offset="0" style="stop-color:#009900"/>
		<stop  offset="1" style="stop-color:#00BB00"/>
	</linearGradient>
	<path class="st13" d="M95,0.3v11.2h-2.1l-5.6-6.8v6.8h-2.6V0.3h2.1l5.6,6.8V0.3H95z"/>
	
		<linearGradient id="SVGID_15_" gradientUnits="userSpaceOnUse" x1="101.8" y1="33.8137" x2="101.8" y2="17.7457" gradientTransform="matrix(1 0 0 -1 0 34)">
		<stop  offset="0" style="stop-color:#009900"/>
		<stop  offset="1" style="stop-color:#00BB00"/>
	</linearGradient>
	<path class="st14" d="M103.1,7.5v4h-2.6v-4l-4.3-7.2h2.7l3,5l3-5h2.5L103.1,7.5z"/>
</g>
<g>
	
		<linearGradient id="SVGID_16_" gradientUnits="userSpaceOnUse" x1="37.55" y1="33.8137" x2="37.55" y2="17.7457" gradientTransform="matrix(1 0 0 -1 0 34)">
		<stop  offset="0" style="stop-color:#009900"/>
		<stop  offset="1" style="stop-color:#00BB00"/>
	</linearGradient>
	<path class="st15" d="M37.1,16.9h-3v-0.8H41v0.8h-3v7.7h-0.9V16.9z"/>
	
		<linearGradient id="SVGID_17_" gradientUnits="userSpaceOnUse" x1="48.2" y1="33.8137" x2="48.2" y2="17.7457" gradientTransform="matrix(1 0 0 -1 0 34)">
		<stop  offset="0" style="stop-color:#009900"/>
		<stop  offset="1" style="stop-color:#00BB00"/>
	</linearGradient>
	<path class="st16" d="M50.6,24.6l-1.9-2.7c-0.2,0-0.4,0-0.7,0h-2.3v2.7h-0.9v-8.4H48c1.1,0,1.9,0.3,2.5,0.8
		c0.6,0.5,0.9,1.2,0.9,2.1c0,0.7-0.2,1.2-0.5,1.7s-0.8,0.8-1.4,1l2.1,2.9L50.6,24.6L50.6,24.6z M49.9,20.6c0.4-0.4,0.7-0.9,0.7-1.5
		c0-0.7-0.2-1.2-0.7-1.6C49.5,17.1,48.8,17,48,17h-2.2v4.2H48C48.8,21.2,49.4,21,49.9,20.6z"/>
	
		<linearGradient id="SVGID_18_" gradientUnits="userSpaceOnUse" x1="58.85" y1="33.8137" x2="58.85" y2="17.7457" gradientTransform="matrix(1 0 0 -1 0 34)">
		<stop  offset="0" style="stop-color:#009900"/>
		<stop  offset="1" style="stop-color:#00BB00"/>
	</linearGradient>
	<path class="st17" d="M61.2,22.3h-4.7l-1,2.2h-0.9l3.8-8.4h0.9l3.8,8.4h-0.9L61.2,22.3z M60.8,21.6l-2-4.5l-2,4.5H60.8z"/>
	
		<linearGradient id="SVGID_19_" gradientUnits="userSpaceOnUse" x1="69.45" y1="33.8137" x2="69.45" y2="17.7457" gradientTransform="matrix(1 0 0 -1 0 34)">
		<stop  offset="0" style="stop-color:#009900"/>
		<stop  offset="1" style="stop-color:#00BB00"/>
	</linearGradient>
	<path class="st18" d="M67.9,24.1c-0.7-0.4-1.2-0.9-1.6-1.5c-0.4-0.7-0.6-1.4-0.6-2.2c0-0.8,0.2-1.5,0.6-2.2s0.9-1.2,1.6-1.5
		c0.7-0.4,1.4-0.6,2.3-0.6c0.6,0,1.2,0.1,1.7,0.3s1,0.5,1.3,0.9l-0.6,0.6c-0.7-0.7-1.5-1-2.5-1c-0.7,0-1.3,0.2-1.8,0.5
		s-1,0.7-1.3,1.2s-0.5,1.1-0.5,1.8c0,0.7,0.2,1.2,0.5,1.8c0.3,0.5,0.7,0.9,1.3,1.2s1.1,0.5,1.8,0.5c1,0,1.8-0.3,2.5-1l0.6,0.6
		c-0.4,0.4-0.8,0.7-1.3,0.9s-1.1,0.3-1.7,0.3C69.3,24.7,68.5,24.5,67.9,24.1z"/>
	
		<linearGradient id="SVGID_20_" gradientUnits="userSpaceOnUse" x1="80.15" y1="33.8137" x2="80.15" y2="17.7457" gradientTransform="matrix(1 0 0 -1 0 34)">
		<stop  offset="0" style="stop-color:#009900"/>
		<stop  offset="1" style="stop-color:#00BB00"/>
	</linearGradient>
	<path class="st19" d="M79.2,20.6l-1.7,1.7v2.3h-0.9v-8.4h0.9v5.1l4.9-5.1h1L79.8,20l3.9,4.6h-1.1L79.2,20.6z"/>
	
		<linearGradient id="SVGID_21_" gradientUnits="userSpaceOnUse" x1="90.75" y1="33.8137" x2="90.75" y2="17.7457" gradientTransform="matrix(1 0 0 -1 0 34)">
		<stop  offset="0" style="stop-color:#009900"/>
		<stop  offset="1" style="stop-color:#00BB00"/>
	</linearGradient>
	<path class="st20" d="M93.7,23.8v0.8h-5.9v-8.4h5.8V17h-4.9v3H93v0.8h-4.3v3.1h5V23.8z"/>
	
		<linearGradient id="SVGID_22_" gradientUnits="userSpaceOnUse" x1="101.35" y1="33.8137" x2="101.35" y2="17.7457" gradientTransform="matrix(1 0 0 -1 0 34)">
		<stop  offset="0" style="stop-color:#009900"/>
		<stop  offset="1" style="stop-color:#00BB00"/>
	</linearGradient>
	<path class="st21" d="M103.7,24.6l-1.9-2.7c-0.2,0-0.4,0-0.7,0h-2.3v2.7H98v-8.4h3.1c1.1,0,1.9,0.3,2.5,0.8
		c0.6,0.5,0.9,1.2,0.9,2.1c0,0.7-0.2,1.2-0.5,1.7s-0.8,0.8-1.4,1l2.1,2.9L103.7,24.6L103.7,24.6z M103,20.6c0.4-0.4,0.7-0.9,0.7-1.5
		c0-0.7-0.2-1.2-0.7-1.6c-0.4-0.4-1.1-0.5-1.9-0.5h-2.2v4.2h2.2C102,21.2,102.6,21,103,20.6z"/>
</g>
</svg>
